<svg xmlns="http://www.w3.org/2000/svg" width="200" height="200" viewBox="0 0 200 200" version="1.1"><path d="M 173.894 84.250 L 173.787 87.500 172.701 84.750 C 171.750 82.344, 171.075 82, 167.307 82 L 163 82 162.994 91.750 C 162.988 101.012, 162.913 101.357, 161.494 98.636 C 160.672 97.060, 160 95.148, 160 94.386 C 160 93.472, 158.823 93, 156.544 93 L 153.089 93 154.544 88.874 C 156.576 83.116, 156.466 82.840, 152.280 83.190 C 148.633 83.494, 148.507 83.645, 145.789 91 C 144.264 95.125, 143.013 99.513, 143.008 100.750 C 143.001 102.751, 143.498 103, 147.500 103 C 151.853 103, 152 103.100, 152 106.060 C 152 108.985, 152.166 109.107, 155.750 108.810 C 159.174 108.527, 159.527 108.217, 159.813 105.250 C 160.237 100.854, 162 101.104, 162 105.560 C 162 109.062, 162.061 109.116, 165.746 108.810 C 169.024 108.539, 169.559 108.126, 170.039 105.500 L 170.588 102.500 171.313 105.250 C 171.948 107.659, 172.524 108, 175.958 108 C 179.821 108, 179.885 107.938, 180.399 103.750 C 180.686 101.412, 181.107 95.338, 181.335 90.250 L 181.749 81 177.874 81 C 174.192 81, 173.995 81.161, 173.894 84.250 M 128.750 84.716 C 127.052 84.973, 125.968 85.777, 125.916 86.816 C 125.870 87.742, 125.532 93.563, 125.166 99.751 L 124.500 111.001 128.250 111.001 L 132 111 132 106.059 C 132 103.341, 132.450 100.840, 133 100.500 C 133.621 100.116, 134 101.990, 134 105.441 C 134 110.964, 134.020 111, 137.031 111 C 138.699 111, 140.288 110.414, 140.563 109.698 C 140.837 108.981, 141.391 102.906, 141.792 96.198 L 142.522 84 138.761 84 L 135 84 135 89.500 C 135 92.525, 134.550 95, 134 95 C 133.450 95, 133 92.525, 133 89.500 C 133 86.475, 132.662 84.067, 132.250 84.150 C 131.838 84.232, 130.262 84.487, 128.750 84.716 M 112.308 86.010 C 108.743 87.446, 107.272 91.004, 106.655 99.684 C 105.933 109.836, 107.154 111.941, 113.905 112.182 C 117.568 112.313, 118.706 111.881, 120.655 109.614 C 121.945 108.115, 123 106.239, 123 105.444 C 123 103.335, 117.043 103.575, 115.392 105.750 C 114.253 107.251, 114.059 106.335, 114.032 99.309 C 114.014 94.804, 114.450 90.840, 115 90.500 C 115.550 90.160, 116 90.535, 116 91.334 C 116 93.212, 117.944 93.924, 121.313 93.280 C 124.657 92.641, 124.736 90.645, 121.545 87.455 C 119.015 84.924, 116.125 84.472, 112.308 86.010 M 96.500 86.927 C 90.207 87.442, 89.468 87.727, 89.180 89.750 C 88.892 91.781, 89.275 92, 93.118 92 L 97.374 92 94.578 94.919 C 91.483 98.149, 91.840 100, 95.559 100 C 97.734 100, 98 100.429, 98 103.941 C 98 108.283, 96.184 110.421, 95.316 107.101 C 94.435 103.732, 88 104.617, 88 108.107 C 88 113.592, 96.676 115.942, 101.452 111.750 C 105.109 108.540, 106.061 101.061, 103.179 98.179 C 101.135 96.135, 101.134 96.099, 103.059 93.652 C 104.925 91.279, 105.796 85.813, 104.250 86.177 C 103.838 86.274, 100.350 86.611, 96.500 86.927 M 72.160 88.859 C 71.061 89.573, 71.208 91.115, 72.981 97.433 C 74.204 101.791, 75.015 107.169, 74.849 109.818 C 74.563 114.387, 74.630 114.507, 77.630 114.802 C 80.698 115.104, 80.705 115.093, 81.338 109.039 C 81.687 105.702, 83.280 99.604, 84.879 95.486 L 87.786 88 84.362 88 C 82.478 88, 80.770 88.563, 80.565 89.250 C 79.088 94.204, 78.697 94.558, 78.086 91.500 C 77.462 88.373, 74.761 87.169, 72.160 88.859 M 60.694 92 C 59.314 95.656, 58.244 95.819, 57.411 92.500 C 56.903 90.477, 56.165 90, 53.542 90 L 50.302 90 49.656 99.750 C 48.520 116.902, 48.542 117.067, 51.919 116.809 C 54.771 116.592, 54.855 116.423, 55.565 109.543 C 55.964 105.670, 56.488 103.063, 56.729 103.750 C 56.970 104.438, 57.767 105, 58.500 105 C 59.233 105, 60.060 104.438, 60.338 103.750 C 60.615 103.063, 60.878 105.537, 60.921 109.250 C 61 115.986, 61.006 116, 63.850 116 L 66.701 116 67.350 106.846 C 67.708 101.812, 68 95.737, 68 93.346 C 68 89.157, 67.889 89, 64.913 89 C 62.402 89, 61.615 89.559, 60.694 92 M 44.500 90.723 C 38.470 91.793, 38 92.065, 38 94.488 C 38 96.173, 38.436 96.770, 39.396 96.402 C 40.556 95.956, 40.700 97.648, 40.252 106.433 L 39.713 117 42.728 117 L 45.743 117 46.466 103.928 C 46.864 96.738, 47.034 90.746, 46.845 90.612 C 46.655 90.478, 45.600 90.528, 44.500 90.723 M 29.203 94.075 C 25.681 100.433, 24.946 100.880, 25.629 96.250 C 26.247 92.059, 26.214 92, 23.270 92 C 20.350 92, 20.271 92.134, 19.642 98.147 C 19.289 101.527, 19 107.602, 19 111.647 C 19 118.762, 19.078 119, 21.424 119 C 23.570 119, 23.947 118.400, 24.719 113.750 L 25.590 108.500 27.122 113 C 28.460 116.931, 29.056 117.540, 31.827 117.813 C 33.572 117.986, 35 117.899, 35 117.621 C 35 117.342, 33.827 113.948, 32.392 110.079 L 29.784 103.044 32.892 97.537 C 34.602 94.508, 36 91.798, 36 91.515 C 36 91.232, 34.854 91, 33.453 91 C 31.646 91, 30.412 91.893, 29.203 94.075" stroke="none" fill="#2c85cf" fill-rule="evenodd"/><path d="M -0 100.005 L -0 200.010 100.250 199.755 L 200.500 199.500 200.755 99.750 L 201.010 0 100.505 0 L 0 0 -0 100.005 M 0.481 100.500 C 0.481 155.500, 0.602 178.147, 0.750 150.826 C 0.898 123.506, 0.898 78.506, 0.750 50.826 C 0.602 23.147, 0.481 45.500, 0.481 100.500 M 173.894 84.250 L 173.787 87.500 172.701 84.750 C 171.750 82.344, 171.075 82, 167.307 82 L 163 82 162.994 91.750 C 162.988 101.012, 162.913 101.357, 161.494 98.636 C 160.672 97.060, 160 95.148, 160 94.386 C 160 93.472, 158.823 93, 156.544 93 L 153.089 93 154.544 88.874 C 156.576 83.116, 156.466 82.840, 152.280 83.190 C 148.633 83.494, 148.507 83.645, 145.789 91 C 144.264 95.125, 143.013 99.513, 143.008 100.750 C 143.001 102.751, 143.498 103, 147.500 103 C 151.853 103, 152 103.100, 152 106.060 C 152 108.985, 152.166 109.107, 155.750 108.810 C 159.174 108.527, 159.527 108.217, 159.813 105.250 C 160.237 100.854, 162 101.104, 162 105.560 C 162 109.062, 162.061 109.116, 165.746 108.810 C 169.024 108.539, 169.559 108.126, 170.039 105.500 L 170.588 102.500 171.313 105.250 C 171.948 107.659, 172.524 108, 175.958 108 C 179.821 108, 179.885 107.938, 180.399 103.750 C 180.686 101.412, 181.107 95.338, 181.335 90.250 L 181.749 81 177.874 81 C 174.192 81, 173.995 81.161, 173.894 84.250 M 128.750 84.716 C 127.052 84.973, 125.968 85.777, 125.916 86.816 C 125.870 87.742, 125.532 93.563, 125.166 99.751 L 124.500 111.001 128.250 111.001 L 132 111 132 106.059 C 132 103.341, 132.450 100.840, 133 100.500 C 133.621 100.116, 134 101.990, 134 105.441 C 134 110.964, 134.020 111, 137.031 111 C 138.699 111, 140.288 110.414, 140.563 109.698 C 140.837 108.981, 141.391 102.906, 141.792 96.198 L 142.522 84 138.761 84 L 135 84 135 89.500 C 135 92.525, 134.550 95, 134 95 C 133.450 95, 133 92.525, 133 89.500 C 133 86.475, 132.662 84.067, 132.250 84.150 C 131.838 84.232, 130.262 84.487, 128.750 84.716 M 112.308 86.010 C 108.743 87.446, 107.272 91.004, 106.655 99.684 C 105.933 109.836, 107.154 111.941, 113.905 112.182 C 117.568 112.313, 118.706 111.881, 120.655 109.614 C 121.945 108.115, 123 106.239, 123 105.444 C 123 103.335, 117.043 103.575, 115.392 105.750 C 114.253 107.251, 114.059 106.335, 114.032 99.309 C 114.014 94.804, 114.450 90.840, 115 90.500 C 115.550 90.160, 116 90.535, 116 91.334 C 116 93.212, 117.944 93.924, 121.313 93.280 C 124.657 92.641, 124.736 90.645, 121.545 87.455 C 119.015 84.924, 116.125 84.472, 112.308 86.010 M 96.500 86.927 C 90.207 87.442, 89.468 87.727, 89.180 89.750 C 88.892 91.781, 89.275 92, 93.118 92 L 97.374 92 94.578 94.919 C 91.483 98.149, 91.840 100, 95.559 100 C 97.734 100, 98 100.429, 98 103.941 C 98 108.283, 96.184 110.421, 95.316 107.101 C 94.435 103.732, 88 104.617, 88 108.107 C 88 113.592, 96.676 115.942, 101.452 111.750 C 105.109 108.540, 106.061 101.061, 103.179 98.179 C 101.135 96.135, 101.134 96.099, 103.059 93.652 C 104.925 91.279, 105.796 85.813, 104.250 86.177 C 103.838 86.274, 100.350 86.611, 96.500 86.927 M 72.160 88.859 C 71.061 89.573, 71.208 91.115, 72.981 97.433 C 74.204 101.791, 75.015 107.169, 74.849 109.818 C 74.563 114.387, 74.630 114.507, 77.630 114.802 C 80.698 115.104, 80.705 115.093, 81.338 109.039 C 81.687 105.702, 83.280 99.604, 84.879 95.486 L 87.786 88 84.362 88 C 82.478 88, 80.770 88.563, 80.565 89.250 C 79.088 94.204, 78.697 94.558, 78.086 91.500 C 77.462 88.373, 74.761 87.169, 72.160 88.859 M 60.694 92 C 59.314 95.656, 58.244 95.819, 57.411 92.500 C 56.903 90.477, 56.165 90, 53.542 90 L 50.302 90 49.656 99.750 C 48.520 116.902, 48.542 117.067, 51.919 116.809 C 54.771 116.592, 54.855 116.423, 55.565 109.543 C 55.964 105.670, 56.488 103.063, 56.729 103.750 C 56.970 104.438, 57.767 105, 58.500 105 C 59.233 105, 60.060 104.438, 60.338 103.750 C 60.615 103.063, 60.878 105.537, 60.921 109.250 C 61 115.986, 61.006 116, 63.850 116 L 66.701 116 67.350 106.846 C 67.708 101.812, 68 95.737, 68 93.346 C 68 89.157, 67.889 89, 64.913 89 C 62.402 89, 61.615 89.559, 60.694 92 M 44.500 90.723 C 38.470 91.793, 38 92.065, 38 94.488 C 38 96.173, 38.436 96.770, 39.396 96.402 C 40.556 95.956, 40.700 97.648, 40.252 106.433 L 39.713 117 42.728 117 L 45.743 117 46.466 103.928 C 46.864 96.738, 47.034 90.746, 46.845 90.612 C 46.655 90.478, 45.600 90.528, 44.500 90.723 M 29.203 94.075 C 25.681 100.433, 24.946 100.880, 25.629 96.250 C 26.247 92.059, 26.214 92, 23.270 92 C 20.350 92, 20.271 92.134, 19.642 98.147 C 19.289 101.527, 19 107.602, 19 111.647 C 19 118.762, 19.078 119, 21.424 119 C 23.570 119, 23.947 118.400, 24.719 113.750 L 25.590 108.500 27.122 113 C 28.460 116.931, 29.056 117.540, 31.827 117.813 C 33.572 117.986, 35 117.899, 35 117.621 C 35 117.342, 33.827 113.948, 32.392 110.079 L 29.784 103.044 32.892 97.537 C 34.602 94.508, 36 91.798, 36 91.515 C 36 91.232, 34.854 91, 33.453 91 C 31.646 91, 30.412 91.893, 29.203 94.075" stroke="none" fill="#fafbfb" fill-rule="evenodd"/></svg>