<svg width="140" height="36" viewBox="0 0 140 36" fill="none" xmlns="http://www.w3.org/2000/svg">
<g clip-path="url(clip0_1_11)">
<mask id="path-1-outside-1_1_11" maskUnits="userSpaceOnUse" x="2" y="9" width="137" height="21" fill="black">
<rect fill="white" x="2" y="9" width="137" height="21"/>
<path d="M6.27625 25.52C5.40958 25.52 4.78958 25.2733 4.41625 24.78C4.04292 24.2733 3.85625 23.5267 3.85625 22.54C3.85625 21.54 4.27625 18.72 5.11625 14.08L4.05625 11.94C5.56292 10.9667 6.93625 10.48 8.17625 10.48C9.20292 10.48 9.71625 11.1067 9.71625 12.36C9.71625 12.7333 9.43625 14.3733 8.87625 17.28L9.81625 16.5C11.7629 14.8733 12.7363 13.4867 12.7363 12.34C12.7363 11.9933 12.6829 11.68 12.5763 11.4C13.5629 10.8 14.4963 10.5 15.3763 10.5C16.6829 10.5 17.3363 11.1667 17.3363 12.5C17.3363 13.9933 16.0096 15.5067 13.3563 17.04C14.5963 21.0133 15.9363 23.4667 17.3763 24.4C17.0829 24.6933 16.6429 24.9467 16.0563 25.16C15.4829 25.3867 14.9696 25.5 14.5163 25.5C13.6096 25.5 12.8829 25.2667 12.3363 24.8C11.7896 24.3333 11.2963 23.4733 10.8563 22.22L9.69625 18.96L8.45625 19.62C8.26958 20.7133 8.17625 21.4133 8.17625 21.72C8.17625 23.0133 8.37625 23.98 8.77625 24.62C7.97625 25.22 7.14292 25.52 6.27625 25.52ZM20.6508 22.1C20.6508 21.2733 20.9308 19.46 21.4908 16.66C20.5841 16.66 19.8041 16.4067 19.1508 15.9C18.5108 15.3933 18.1241 14.6067 17.9908 13.54C19.0708 13.3267 20.0908 13.0067 21.0508 12.58C22.0241 12.14 22.8374 11.7667 23.4908 11.46C24.1441 11.1533 24.7308 11 25.2508 11C26.1974 11 26.6708 11.5333 26.6708 12.6C26.6708 13.2533 26.4108 14.7733 25.8908 17.16C25.3708 19.5333 25.1108 21.2333 25.1108 22.26C25.1108 23.2733 25.3041 24.1067 25.6908 24.76C24.7974 25.2533 23.9441 25.5 23.1308 25.5C21.4774 25.5 20.6508 24.3667 20.6508 22.1ZM45.0575 25.52C44.1908 25.52 43.5708 25.2733 43.1975 24.78C42.8242 24.2733 42.6375 23.5333 42.6375 22.56C42.6375 21.5867 42.9508 19.3467 43.5775 15.84H43.2575C42.4442 16.9067 41.7708 18.18 41.2375 19.66C40.7042 21.14 40.3775 22.4733 40.2575 23.66C39.6042 24.2733 38.8508 24.58 37.9975 24.58C37.6508 24.58 37.3442 24.46 37.0775 24.22C36.8242 23.9667 36.5708 23.5333 36.3175 22.92C35.8242 21.68 35.4708 19.32 35.2575 15.84H34.9375C34.2842 18.7067 33.9575 20.7267 33.9575 21.9C33.9575 23.0733 34.1575 23.98 34.5575 24.62C33.7575 25.22 32.9242 25.52 32.0575 25.52C31.1908 25.52 30.5708 25.2733 30.1975 24.78C29.8242 24.2733 29.6375 23.5267 29.6375 22.54C29.6375 21.54 30.0575 18.72 30.8975 14.08L29.8375 11.94C31.3442 10.9667 32.7175 10.48 33.9575 10.48C34.5042 10.48 34.9642 10.54 35.3375 10.66C35.7242 10.7667 36.0908 10.98 36.4375 11.3C36.7975 11.62 37.0908 12.0667 37.3175 12.64C37.8375 13.9333 38.2108 15.82 38.4375 18.3H38.6775C39.3708 16.26 40.3308 14.5067 41.5575 13.04C42.2242 12.2533 43.0175 11.6333 43.9375 11.18C44.8708 10.7267 45.8775 10.5 46.9575 10.5C47.9842 10.5 48.4975 11.12 48.4975 12.36C48.4975 12.7733 48.2375 14.3133 47.7175 16.98C47.2108 19.6333 46.9575 21.2133 46.9575 21.72C46.9575 23.0133 47.1575 23.98 47.5575 24.62C46.7575 25.22 45.9242 25.52 45.0575 25.52ZM51.6002 21.4C51.5868 21.1333 51.5602 20.5733 51.5202 19.72C51.4802 18.8667 51.4402 18.22 51.4002 17.78C51.3735 17.3267 51.3002 16.7133 51.1802 15.94C51.0735 15.1667 50.9335 14.5467 50.7602 14.08C50.3335 12.8533 49.7335 11.9733 48.9602 11.44C50.0002 10.8133 50.8402 10.5 51.4802 10.5C52.1335 10.5 52.6735 10.6067 53.1002 10.82C53.5268 11.0333 53.8735 11.2933 54.1402 11.6C54.4202 11.8933 54.6668 12.3067 54.8802 12.84C55.0935 13.3733 55.2535 13.86 55.3602 14.3C55.4668 14.74 55.5535 15.3067 55.6202 16C55.7002 16.6933 55.7468 17.2533 55.7602 17.68C55.7868 18.1067 55.8068 18.6733 55.8202 19.38C55.8468 20.0733 55.8668 20.5533 55.8802 20.82H56.1602C56.6802 19.58 57.1535 18.16 57.5802 16.56C58.0202 14.96 58.2402 13.6867 58.2402 12.74C58.2402 12.2733 58.1402 11.84 57.9402 11.44C58.9402 10.8133 59.8268 10.5 60.6002 10.5C62.0668 10.5 62.8002 11.2733 62.8002 12.82C62.8002 13.6067 62.5002 14.9267 61.9002 16.78C61.3002 18.6333 60.5935 20.4267 59.7802 22.16C58.7268 24.4133 57.6402 26.04 56.5202 27.04C55.4135 28.04 53.9868 28.54 52.2402 28.54C51.4668 28.54 50.7668 28.3867 50.1402 28.08C49.3802 27.72 49.0002 27.1133 49.0002 26.26C49.0002 25.4067 49.3268 24.5267 49.9802 23.62C50.2735 24.0467 50.6668 24.38 51.1602 24.62C51.6535 24.8467 52.1935 24.96 52.7802 24.96C53.3802 24.96 53.9402 24.8 54.4602 24.48C54.9935 24.1467 55.3735 23.6733 55.6002 23.06C54.8935 23.2333 54.2468 23.32 53.6602 23.32C52.3935 23.32 51.7068 22.68 51.6002 21.4ZM66.5377 28.12C65.2177 28.12 64.1977 27.92 63.4777 27.52C62.7577 27.1333 62.3977 26.6067 62.3977 25.94C62.3977 25.2733 62.6243 24.7667 63.0777 24.42C63.531 24.06 64.031 23.88 64.5777 23.88C65.1243 23.88 65.6443 24.0267 66.1377 24.32C66.631 24.6133 67.0377 25.0333 67.3577 25.58C67.9843 25.4067 68.5443 25.0467 69.0377 24.5C69.5443 23.94 69.7977 23.3533 69.7977 22.74C69.7977 22.1267 69.551 21.58 69.0577 21.1C68.2443 21.5667 67.411 21.8 66.5577 21.8C65.491 21.8 64.9577 21.3067 64.9577 20.32C64.9577 19.76 65.2043 19.2933 65.6977 18.92C66.2043 18.5333 66.9577 18.34 67.9577 18.34C68.3177 18.34 68.5977 18.3533 68.7977 18.38C69.1577 18.1 69.4377 17.7467 69.6377 17.32C69.851 16.88 69.9577 16.4333 69.9577 15.98C69.9577 15.5133 69.8177 15.1267 69.5377 14.82C69.2577 14.5 68.8777 14.34 68.3977 14.34C67.931 14.34 67.4643 14.5267 66.9977 14.9C66.531 15.2733 66.1843 15.8667 65.9577 16.68C65.2243 16.64 64.6777 16.4467 64.3177 16.1C63.9577 15.74 63.7777 15.2867 63.7777 14.74C63.7777 13.74 64.2577 12.8667 65.2177 12.12C66.191 11.3733 67.631 11 69.5377 11C70.431 11 71.1977 11.1133 71.8377 11.34C72.4777 11.5533 72.9643 11.84 73.2977 12.2C73.9243 12.8933 74.2377 13.6733 74.2377 14.54C74.2377 16.1133 73.3843 17.7133 71.6777 19.34C73.3977 20.1667 74.2577 21.3667 74.2577 22.94C74.2577 24.3667 73.5443 25.5867 72.1177 26.6C70.7043 27.6133 68.8443 28.12 66.5377 28.12ZM76.2641 18.86C76.2641 17.9267 76.4641 16.98 76.8641 16.02C77.2641 15.0467 77.8307 14.1467 78.5641 13.32C79.2974 12.4933 80.2507 11.82 81.4241 11.3C82.6107 10.7667 83.8307 10.5 85.0841 10.5C86.3507 10.5 87.3374 10.7333 88.0441 11.2C88.7641 11.6667 89.1241 12.3133 89.1241 13.14C89.1241 13.9667 88.8507 14.6133 88.3041 15.08C87.7707 15.5333 87.1574 15.76 86.4641 15.76C85.7707 15.76 85.1441 15.6133 84.5841 15.32C84.0374 15.0133 83.5974 14.58 83.2641 14.02C82.5441 14.3667 81.9241 15.0467 81.4041 16.06C80.8841 17.0733 80.6241 18.0933 80.6241 19.12C80.6241 20.1333 80.7907 20.94 81.1241 21.54C81.4574 22.1267 81.9307 22.42 82.5441 22.42C83.1574 22.42 83.6974 22.1067 84.1641 21.48C84.6441 20.8533 84.8841 20.1 84.8841 19.22C86.2307 19.22 87.1907 19.3267 87.7641 19.54C88.3507 19.7533 88.6441 20.2133 88.6441 20.92C88.6441 22.0267 88.0441 23.0667 86.8441 24.04C85.6441 25.0133 84.1374 25.5 82.3241 25.5C80.5107 25.5 79.0441 24.94 77.9241 23.82C76.8174 22.7 76.2641 21.0467 76.2641 18.86ZM99.3364 22.42C99.3364 21.86 99.4297 20.94 99.6164 19.66H95.0964C94.9231 20.66 94.8364 21.3467 94.8364 21.72C94.8364 23.0133 95.0364 23.98 95.4364 24.62C94.6364 25.22 93.8031 25.52 92.9364 25.52C92.0697 25.52 91.4497 25.2733 91.0764 24.78C90.7031 24.2733 90.5164 23.5267 90.5164 22.54C90.5164 21.54 90.9364 18.72 91.7764 14.08L90.7164 11.94C92.2231 10.9667 93.5964 10.48 94.8364 10.48C95.8631 10.48 96.3764 11.1067 96.3764 12.36C96.3764 12.7333 96.0964 14.3733 95.5364 17.28H100.016C100.07 16.9467 100.263 15.88 100.596 14.08L99.5364 11.94C101.043 10.9667 102.416 10.48 103.656 10.48C104.683 10.48 105.196 11.1067 105.196 12.36C105.196 12.7733 104.936 14.3133 104.416 16.98C103.91 19.6333 103.656 21.2133 103.656 21.72C103.656 23.0133 103.856 23.98 104.256 24.62C103.456 25.22 102.623 25.52 101.756 25.52C100.89 25.52 100.27 25.2733 99.8964 24.78C99.5231 24.2733 99.3364 23.4867 99.3364 22.42ZM113.081 25.64C113.081 25.3067 113.107 24.9867 113.161 24.68C112.067 24.8933 110.981 25 109.901 25C107.421 25 106.181 24.2333 106.181 22.7C106.181 21.82 106.821 20.2267 108.101 17.92C108.581 17.0533 109.021 16.1 109.421 15.06C109.821 14.02 110.021 13.1333 110.021 12.4C110.021 12.0667 109.967 11.7533 109.861 11.46C110.674 11.1533 111.387 11 112.001 11C113.801 11 114.701 11.8933 114.701 13.68C114.701 16.08 112.974 18.9867 109.521 22.4H113.681C114.041 21.1467 114.481 19.9867 115.001 18.92C115.361 18.56 115.927 18.2267 116.701 17.92C117.474 17.6133 118.187 17.46 118.841 17.46C119.041 17.46 119.174 17.5 119.241 17.58C119.307 17.6467 119.341 17.7933 119.341 18.02C119.341 18.2467 119.227 18.7867 119.001 19.64C118.307 22.1733 117.961 24.2333 117.961 25.82C117.961 26.58 118.121 27.2 118.441 27.68C117.507 28.16 116.594 28.4 115.701 28.4C114.807 28.4 114.147 28.14 113.721 27.62C113.294 27.1133 113.081 26.4533 113.081 25.64ZM131.501 21.86L131.981 21.54C131.115 19.8733 130.681 18.0467 130.681 16.06C130.681 14.5133 131.061 13.2 131.821 12.12C132.595 11.04 133.681 10.5 135.081 10.5C135.815 10.5 136.435 10.6267 136.941 10.88C136.808 11.6267 136.568 12.9267 136.221 14.78C135.475 18.7667 135.101 21.0533 135.101 21.64C135.101 22.9067 135.315 23.8533 135.741 24.48C135.155 24.8667 134.615 25.1333 134.121 25.28C133.628 25.4267 132.988 25.5 132.201 25.5C131.428 25.5 130.721 25.3333 130.081 25C129.455 24.6667 128.935 24.2267 128.521 23.68C128.121 23.12 127.781 22.4333 127.501 21.62C127.008 20.1933 126.708 18.38 126.601 16.18H126.281C125.668 18.9533 125.361 20.8933 125.361 22C125.361 23.1067 125.561 23.98 125.961 24.62C125.161 25.22 124.328 25.52 123.461 25.52C122.595 25.52 121.975 25.2733 121.601 24.78C121.228 24.2733 121.041 23.5267 121.041 22.54C121.041 21.54 121.461 18.72 122.301 14.08L121.241 11.94C122.735 10.98 124.068 10.5 125.241 10.5C126.415 10.5 127.301 10.7067 127.901 11.12C128.501 11.52 128.921 12.1133 129.161 12.9C129.401 13.6867 129.575 14.52 129.681 15.4C129.801 16.2667 130.001 17.3133 130.281 18.54C130.575 19.7667 130.981 20.8733 131.501 21.86Z"/>
</mask>
<path d="M4.41625 24.78L3.61113 25.3732L3.61884 25.3834L4.41625 24.78ZM5.11625 14.08L6.10026 14.2581L6.15919 13.9326L6.01235 13.6361L5.11625 14.08ZM4.05625 11.94L3.51362 11.1L2.76408 11.5842L3.16015 12.3839L4.05625 11.94ZM8.87625 17.28L7.89431 17.0908L7.36608 19.8326L9.51482 18.0496L8.87625 17.28ZM9.81625 16.5L10.4548 17.2696L10.4575 17.2674L9.81625 16.5ZM12.5763 11.4L12.0567 10.5456L11.3454 10.9781L11.6418 11.756L12.5763 11.4ZM13.3563 17.04L12.8559 16.1742L12.1634 16.5744L12.4017 17.3379L13.3563 17.04ZM17.3763 24.4L18.0834 25.1071L18.9574 24.2331L17.9201 23.5608L17.3763 24.4ZM16.0563 25.16L15.7145 24.2202L15.7015 24.2249L15.6886 24.23L16.0563 25.16ZM12.3363 24.8L11.687 25.5606L12.3363 24.8ZM10.8563 22.22L11.7998 21.8888L11.7984 21.8848L10.8563 22.22ZM9.69625 18.96L10.6384 18.6248L10.2498 17.5326L9.2264 18.0773L9.69625 18.96ZM8.45625 19.62L7.9864 18.7373L7.55312 18.9679L7.47051 19.4517L8.45625 19.62ZM8.77625 24.62L9.37625 25.42L10.1111 24.8689L9.62425 24.09L8.77625 24.62ZM6.27625 24.52C5.58934 24.52 5.32981 24.33 5.21366 24.1766L3.61884 25.3834C4.24936 26.2166 5.22983 26.52 6.27625 26.52V24.52ZM5.22131 24.1868C5.02828 23.9248 4.85625 23.4261 4.85625 22.54H2.85625C2.85625 23.6272 3.05756 24.6218 3.61119 25.3732L5.22131 24.1868ZM4.85625 22.54C4.85625 22.1254 4.94891 21.2419 5.16034 19.8223C5.36814 18.4271 5.68108 16.5736 6.10026 14.2581L4.13224 13.9019C3.71142 16.2264 3.39436 18.1029 3.18216 19.5277C2.97359 20.9281 2.85625 21.9546 2.85625 22.54H4.85625ZM6.01235 13.6361L4.95235 11.4961L3.16015 12.3839L4.22015 14.5239L6.01235 13.6361ZM4.59888 12.78C6.01233 11.8669 7.19667 11.48 8.17625 11.48V9.48C6.67583 9.48 5.1135 10.0665 3.51362 11.1L4.59888 12.78ZM8.17625 11.48C8.47695 11.48 8.53998 11.5621 8.55766 11.5837C8.60662 11.6435 8.71625 11.8444 8.71625 12.36H10.7163C10.7163 11.6223 10.5692 10.8832 10.1048 10.3163C9.60919 9.71123 8.90222 9.48 8.17625 9.48V11.48ZM8.71625 12.36C8.71625 12.3557 8.71593 12.3825 8.70823 12.4584C8.70116 12.5282 8.68978 12.6211 8.67328 12.7398C8.64031 12.9769 8.58972 13.2964 8.52051 13.7017C8.38228 14.5114 8.17383 15.64 7.89431 17.0908L9.85819 17.4692C10.1387 16.0133 10.3502 14.8686 10.492 14.0383C10.6256 13.2558 10.7163 12.6521 10.7163 12.36H8.71625ZM9.51482 18.0496L10.4548 17.2696L9.17768 15.7304L8.23768 16.5104L9.51482 18.0496ZM10.4575 17.2674C11.4682 16.4227 12.2694 15.6057 12.8247 14.8145C13.376 14.0291 13.7363 13.1957 13.7363 12.34H11.7363C11.7363 12.6309 11.6098 13.0642 11.1878 13.6655C10.7698 14.261 10.1109 14.9506 9.17503 15.7326L10.4575 17.2674ZM13.7363 12.34C13.7363 11.8905 13.6669 11.454 13.5107 11.044L11.6418 11.756C11.6989 11.906 11.7363 12.0962 11.7363 12.34H13.7363ZM13.0958 12.2544C13.9737 11.7206 14.7283 11.5 15.3763 11.5V9.5C14.2642 9.5 13.1522 9.8794 12.0567 10.5456L13.0958 12.2544ZM15.3763 11.5C15.8703 11.5 16.0583 11.6246 16.132 11.6999C16.2095 11.7789 16.3363 11.9825 16.3363 12.5H18.3363C18.3363 11.6842 18.1364 10.8877 17.5605 10.3001C16.9809 9.70869 16.1889 9.5 15.3763 9.5V11.5ZM16.3363 12.5C16.3363 12.9307 16.1488 13.4575 15.5893 14.0958C15.0253 14.7392 14.1321 15.4367 12.8559 16.1742L13.8566 17.9058C15.2337 17.11 16.3306 16.2842 17.0932 15.4142C17.8603 14.5392 18.3363 13.5626 18.3363 12.5H16.3363ZM12.4017 17.3379C13.0327 19.3601 13.7008 21.0343 14.4136 22.3394C15.1186 23.6301 15.9115 24.6423 16.8324 25.2392L17.9201 23.5608C17.401 23.2243 16.8039 22.5432 16.1689 21.3806C15.5417 20.2324 14.9198 18.6932 14.3108 16.7421L12.4017 17.3379ZM16.6691 23.6929C16.5179 23.8441 16.227 24.0339 15.7145 24.2202L16.398 26.0998C17.0589 25.8595 17.6479 25.5426 18.0834 25.1071L16.6691 23.6929ZM15.6886 24.23C15.1929 24.426 14.8073 24.5 14.5163 24.5V26.5C15.1319 26.5 15.773 26.3473 16.4239 26.09L15.6886 24.23ZM14.5163 24.5C13.7836 24.5 13.3078 24.3145 12.9855 24.0394L11.687 25.5606C12.4581 26.2188 13.4356 26.5 14.5163 26.5V24.5ZM12.9855 24.0394C12.6447 23.7485 12.2234 23.0952 11.7998 21.8888L9.91271 22.5512C10.3691 23.8514 10.9345 24.9182 11.687 25.5606L12.9855 24.0394ZM11.7984 21.8848L10.6384 18.6248L8.75412 19.2952L9.91412 22.5552L11.7984 21.8848ZM9.2264 18.0773L7.9864 18.7373L8.9261 20.5027L10.1661 19.8427L9.2264 18.0773ZM7.47051 19.4517C7.28822 20.5194 7.17625 21.3109 7.17625 21.72H9.17625C9.17625 21.5158 9.25095 20.9072 9.44199 19.7883L7.47051 19.4517ZM7.17625 21.72C7.17625 23.0827 7.38089 24.2742 7.92825 25.15L9.62425 24.09C9.37161 23.6858 9.17625 22.9439 9.17625 21.72H7.17625ZM8.17625 23.82C7.52163 24.311 6.89429 24.52 6.27625 24.52V26.52C7.39155 26.52 8.43087 26.129 9.37625 25.42L8.17625 23.82ZM21.4908 16.66L22.4714 16.8561L22.7106 15.66H21.4908V16.66ZM19.1508 15.9L18.53 16.6841L18.538 16.6902L19.1508 15.9ZM17.9908 13.54L17.797 12.559L16.8829 12.7395L16.9985 13.664L17.9908 13.54ZM21.0508 12.58L21.4569 13.4938L21.4627 13.4912L21.0508 12.58ZM23.4908 11.46L23.9157 12.3652L23.9157 12.3652L23.4908 11.46ZM25.8908 17.16L26.8676 17.374L26.8679 17.3729L25.8908 17.16ZM25.6908 24.76L26.1742 25.6354L27.0761 25.1373L26.5514 24.2507L25.6908 24.76ZM21.6508 22.1C21.6508 21.3921 21.906 19.6828 22.4714 16.8561L20.5102 16.4639C19.9555 19.2372 19.6508 21.1546 19.6508 22.1H21.6508ZM21.4908 15.66C20.7833 15.66 20.2244 15.4672 19.7636 15.1098L18.538 16.6902C19.3838 17.3462 20.385 17.66 21.4908 17.66V15.66ZM19.7715 15.116C19.3959 14.8186 19.0945 14.3078 18.9831 13.416L16.9985 13.664C17.1537 14.9056 17.6257 15.9681 18.5301 16.684L19.7715 15.116ZM18.1846 14.521C19.3341 14.294 20.4257 13.9521 21.4569 13.4938L20.6446 11.6662C19.7559 12.0612 18.8074 12.3594 17.797 12.559L18.1846 14.521ZM21.4627 13.4912C22.4385 13.0501 23.2565 12.6746 23.9157 12.3652L23.0659 10.5548C22.4184 10.8587 21.6097 11.2299 20.6389 11.6688L21.4627 13.4912ZM23.9157 12.3652C24.4845 12.0983 24.9231 12 25.2508 12V10C24.5385 10 23.8038 10.2084 23.0659 10.5548L23.9157 12.3652ZM25.2508 12C25.396 12 25.4794 12.0207 25.5204 12.0361C25.5556 12.0494 25.5644 12.0598 25.5679 12.0638C25.578 12.0752 25.6708 12.1934 25.6708 12.6H27.6708C27.6708 11.94 27.5269 11.2582 27.0637 10.7362C26.5803 10.1915 25.9112 10 25.2508 10V12ZM25.6708 12.6C25.6708 13.1225 25.4413 14.5255 24.9137 16.9471L26.8679 17.3729C27.3802 15.0212 27.6708 13.3842 27.6708 12.6H25.6708ZM24.914 16.946C24.3937 19.3204 24.1108 21.1144 24.1108 22.26H26.1108C26.1108 21.3522 26.3479 19.7462 26.8676 17.374L24.914 16.946ZM24.1108 22.26C24.1108 23.3944 24.3266 24.4185 24.8302 25.2693L26.5514 24.2507C26.2816 23.7949 26.1108 23.1522 26.1108 22.26H24.1108ZM25.2074 23.8846C24.425 24.3167 23.7372 24.5 23.1308 24.5V26.5C24.151 26.5 25.1699 26.19 26.1742 25.6354L25.2074 23.8846ZM23.1308 24.5C22.5587 24.5 22.2686 24.321 22.0787 24.0607C21.846 23.7417 21.6508 23.1414 21.6508 22.1H19.6508C19.6508 23.3252 19.8689 24.425 20.4629 25.2393C21.0996 26.1123 22.0495 26.5 23.1308 26.5V24.5ZM43.1975 24.78L42.3924 25.3732L42.4001 25.3834L43.1975 24.78ZM43.5775 15.84L44.5619 16.0159L44.7721 14.84H43.5775V15.84ZM43.2575 15.84V14.84H42.7625L42.4623 15.2337L43.2575 15.84ZM41.2375 19.66L42.1783 19.999L42.1783 19.999L41.2375 19.66ZM40.2575 23.66L40.9419 24.3891L41.2148 24.1329L41.2524 23.7606L40.2575 23.66ZM37.0775 24.22L36.3704 24.9271L36.389 24.9457L36.4085 24.9633L37.0775 24.22ZM36.3175 22.92L35.3883 23.2897L35.3932 23.3018L36.3175 22.92ZM35.2575 15.84L36.2556 15.7788L36.1981 14.84H35.2575V15.84ZM34.9375 15.84V14.84H34.1398L33.9625 15.6178L34.9375 15.84ZM34.5575 24.62L35.1575 25.42L35.8923 24.8689L35.4055 24.09L34.5575 24.62ZM30.1975 24.78L29.3924 25.3732L29.4001 25.3834L30.1975 24.78ZM30.8975 14.08L31.8815 14.2581L31.9404 13.9326L31.7936 13.6361L30.8975 14.08ZM29.8375 11.94L29.2949 11.1L28.5453 11.5842L28.9414 12.3839L29.8375 11.94ZM35.3375 10.66L35.0315 11.612L35.0514 11.6184L35.0716 11.624L35.3375 10.66ZM36.4375 11.3L35.7592 12.0348L35.7661 12.0412L35.7731 12.0474L36.4375 11.3ZM37.3175 12.64L36.3875 13.0077L36.3897 13.013L37.3175 12.64ZM38.4375 18.3L37.4417 18.391L37.5247 19.3H38.4375V18.3ZM38.6775 18.3V19.3H39.3938L39.6243 18.6218L38.6775 18.3ZM41.5575 13.04L40.7946 12.3935L40.7904 12.3984L41.5575 13.04ZM43.9375 11.18L43.5006 10.2805L43.4955 10.283L43.9375 11.18ZM47.7175 16.98L46.736 16.7886L46.7352 16.7924L47.7175 16.98ZM47.5575 24.62L48.1575 25.42L48.8923 24.8689L48.4055 24.09L47.5575 24.62ZM45.0575 24.52C44.3706 24.52 44.1111 24.33 43.9949 24.1766L42.4001 25.3834C43.0306 26.2166 44.0111 26.52 45.0575 26.52V24.52ZM44.0026 24.1868C43.8082 23.923 43.6375 23.4292 43.6375 22.56H41.6375C41.6375 23.6375 41.8402 24.6237 42.3924 25.3732L44.0026 24.1868ZM43.6375 22.56C43.6375 21.694 43.9303 19.5501 44.5619 16.0159L42.5931 15.6641C41.9713 19.1432 41.6375 21.4793 41.6375 22.56H43.6375ZM43.5775 14.84H43.2575V16.84H43.5775V14.84ZM42.4623 15.2337C41.5775 16.3941 40.8588 17.7611 40.2967 19.321L42.1783 19.999C42.6828 18.5989 43.3109 17.4192 44.0527 16.4463L42.4623 15.2337ZM40.2967 19.321C39.7439 20.8551 39.3929 22.2703 39.2626 23.5594L41.2524 23.7606C41.3621 22.6764 41.6644 21.4249 42.1783 19.999L40.2967 19.321ZM39.5731 22.9309C39.0949 23.3798 38.5828 23.58 37.9975 23.58V25.58C39.1188 25.58 40.1134 25.1668 40.9419 24.3891L39.5731 22.9309ZM37.9975 23.58C37.9072 23.58 37.8366 23.5578 37.7465 23.4767L36.4085 24.9633C36.8518 25.3622 37.3945 25.58 37.9975 25.58V23.58ZM37.7846 23.5129C37.673 23.4013 37.4803 23.1158 37.2418 22.5382L35.3932 23.3018C35.6614 23.9509 35.9753 24.532 36.3704 24.9271L37.7846 23.5129ZM37.2467 22.5503C36.8202 21.4783 36.4697 19.2704 36.2556 15.7788L34.2594 15.9012C34.472 19.3696 34.8282 21.8817 35.3883 23.2897L37.2467 22.5503ZM35.2575 14.84H34.9375V16.84H35.2575V14.84ZM33.9625 15.6178C33.31 18.4807 32.9575 20.601 32.9575 21.9H34.9575C34.9575 20.8523 35.2583 18.9327 35.9125 16.0622L33.9625 15.6178ZM32.9575 21.9C32.9575 23.1652 33.1694 24.2859 33.7095 25.15L35.4055 24.09C35.1456 23.6741 34.9575 22.9815 34.9575 21.9H32.9575ZM33.9575 23.82C33.3029 24.311 32.6755 24.52 32.0575 24.52V26.52C33.1728 26.52 34.2121 26.129 35.1575 25.42L33.9575 23.82ZM32.0575 24.52C31.3706 24.52 31.1111 24.33 30.9949 24.1766L29.4001 25.3834C30.0306 26.2166 31.0111 26.52 32.0575 26.52V24.52ZM31.0026 24.1868C30.8095 23.9248 30.6375 23.4261 30.6375 22.54H28.6375C28.6375 23.6272 28.8388 24.6218 29.3924 25.3732L31.0026 24.1868ZM30.6375 22.54C30.6375 22.1254 30.7302 21.2419 30.9416 19.8223C31.1494 18.4271 31.4623 16.5736 31.8815 14.2581L29.9135 13.9019C29.4927 16.2264 29.1756 18.1029 28.9634 19.5277C28.7548 20.9281 28.6375 21.9546 28.6375 22.54H30.6375ZM31.7936 13.6361L30.7336 11.4961L28.9414 12.3839L30.0014 14.5239L31.7936 13.6361ZM30.3801 12.78C31.7936 11.8669 32.9779 11.48 33.9575 11.48V9.48C32.4571 9.48 30.8948 10.0665 29.2949 11.1L30.3801 12.78ZM33.9575 11.48C34.438 11.48 34.7875 11.5336 35.0315 11.612L35.6435 9.70797C35.1409 9.54641 34.5704 9.48 33.9575 9.48V11.48ZM35.0716 11.624C35.2795 11.6814 35.5091 11.804 35.7592 12.0348L37.1158 10.5652C36.6725 10.156 36.1688 9.85197 35.6034 9.69601L35.0716 11.624ZM35.7731 12.0474C35.988 12.2384 36.2028 12.5404 36.3875 13.0077L38.2475 12.2723C37.9789 11.5929 37.607 11.0016 37.1019 10.5526L35.7731 12.0474ZM36.3897 13.013C36.8556 14.1718 37.218 15.9445 37.4417 18.391L39.4333 18.209C39.2036 15.6955 38.8194 13.6949 38.2453 12.267L36.3897 13.013ZM38.4375 19.3H38.6775V17.3H38.4375V19.3ZM39.6243 18.6218C40.283 16.6838 41.1864 15.0424 42.3246 13.6816L40.7904 12.3984C39.4752 13.9709 38.4587 15.8362 37.7307 17.9782L39.6243 18.6218ZM42.3204 13.6865C42.8989 13.0039 43.5832 12.4694 44.3795 12.077L43.4955 10.283C42.4518 10.7973 41.5494 11.5028 40.7946 12.3935L42.3204 13.6865ZM44.3744 12.0795C45.166 11.695 46.0225 11.5 46.9575 11.5V9.5C45.7325 9.5 44.5757 9.7583 43.5006 10.2805L44.3744 12.0795ZM46.9575 11.5C47.2618 11.5 47.3257 11.5828 47.3422 11.6027C47.3887 11.6588 47.4975 11.853 47.4975 12.36H49.4975C49.4975 11.627 49.3496 10.8912 48.8828 10.3273C48.3859 9.7272 47.6799 9.5 46.9575 9.5V11.5ZM47.4975 12.36C47.4975 12.3599 47.4975 12.3606 47.4975 12.3621C47.4974 12.3636 47.4974 12.3657 47.4973 12.3685C47.4971 12.3742 47.4968 12.382 47.4962 12.3922C47.495 12.4128 47.4929 12.44 47.4897 12.4747C47.4831 12.5446 47.4727 12.6354 47.4575 12.7493C47.4271 12.9773 47.3805 13.2792 47.3165 13.6585C47.1885 14.4163 46.9954 15.4585 46.736 16.7886L48.699 17.1714C48.9596 15.8349 49.1565 14.7737 49.2885 13.9915C49.4138 13.2494 49.4975 12.6687 49.4975 12.36H47.4975ZM46.7352 16.7924C46.4811 18.1232 46.289 19.1925 46.1601 19.9967C46.0361 20.7703 45.9575 21.3727 45.9575 21.72H47.9575C47.9575 21.5606 48.0056 21.1197 48.1349 20.3133C48.2593 19.5375 48.4472 18.4901 48.6998 17.1676L46.7352 16.7924ZM45.9575 21.72C45.9575 23.0827 46.1621 24.2742 46.7095 25.15L48.4055 24.09C48.1529 23.6858 47.9575 22.9439 47.9575 21.72H45.9575ZM46.9575 23.82C46.3029 24.311 45.6755 24.52 45.0575 24.52V26.52C46.1728 26.52 47.2121 26.129 48.1575 25.42L46.9575 23.82ZM51.6002 21.4L50.6014 21.4499L50.6022 21.4665L50.6036 21.483L51.6002 21.4ZM51.5202 19.72L52.5191 19.6732L52.5191 19.6732L51.5202 19.72ZM51.4002 17.78L50.4019 17.8387L50.4028 17.8546L50.4043 17.8705L51.4002 17.78ZM51.1802 15.94L50.1895 16.0766L50.1907 16.085L50.192 16.0933L51.1802 15.94ZM50.7602 14.08L49.8157 14.4085L49.8191 14.4184L49.8227 14.4282L50.7602 14.08ZM48.9602 11.44L48.444 10.5835L47.1166 11.3833L48.3924 12.2632L48.9602 11.44ZM53.1002 10.82L53.5474 9.92557L53.5474 9.92557L53.1002 10.82ZM54.1402 11.6L53.3856 12.2562L53.4008 12.2737L53.4168 12.2905L54.1402 11.6ZM54.8802 12.84L55.8086 12.4686L55.8086 12.4686L54.8802 12.84ZM55.3602 14.3L54.3883 14.5356L54.3883 14.5356L55.3602 14.3ZM55.6202 16L54.6247 16.0957L54.6257 16.1052L54.6267 16.1146L55.6202 16ZM55.7602 17.68L54.7606 17.7112L54.7611 17.7268L54.7621 17.7424L55.7602 17.68ZM55.8202 19.38L54.8203 19.3989L54.8205 19.4087L54.8209 19.4184L55.8202 19.38ZM55.8802 20.82L54.8814 20.8699L54.9289 21.82H55.8802V20.82ZM56.1602 20.82V21.82H56.8252L57.0824 21.2067L56.1602 20.82ZM57.5802 16.56L56.6159 16.2948L56.6139 16.3023L57.5802 16.56ZM57.9402 11.44L57.4091 10.5926L56.6396 11.0749L57.0457 11.8872L57.9402 11.44ZM61.9002 16.78L60.9488 16.472L61.9002 16.78ZM59.7802 22.16L58.8749 21.7352L58.8742 21.7365L59.7802 22.16ZM56.5202 27.04L55.8541 26.294L55.8497 26.298L56.5202 27.04ZM50.1402 28.08L50.5797 27.1817L50.5682 27.1763L50.1402 28.08ZM49.9802 23.62L50.8042 23.0535L49.9994 21.8828L49.1688 23.0354L49.9802 23.62ZM51.1602 24.62L50.7227 25.5192L50.7326 25.5241L50.7427 25.5287L51.1602 24.62ZM54.4602 24.48L54.9843 25.3317L54.9902 25.328L54.4602 24.48ZM55.6002 23.06L56.5382 23.4067L57.191 21.6402L55.3619 22.0888L55.6002 23.06ZM52.5989 21.3501C52.5857 21.0852 52.5591 20.5268 52.5191 19.6732L50.5213 19.7668C50.5612 20.6198 50.588 21.1814 50.6014 21.4499L52.5989 21.3501ZM52.5191 19.6732C52.4789 18.816 52.4381 18.1518 52.396 17.6895L50.4043 17.8705C50.4422 18.2882 50.4814 18.9173 50.5213 19.7668L52.5191 19.6732ZM52.3984 17.7213C52.369 17.2216 52.2903 16.5725 52.1683 15.7867L50.192 16.0933C50.31 16.8542 50.3779 17.4317 50.4019 17.8387L52.3984 17.7213ZM52.1708 15.8034C52.0591 14.9936 51.9064 14.294 51.6976 13.7318L49.8227 14.4282C49.9606 14.7993 50.0879 15.3397 50.1895 16.0766L52.1708 15.8034ZM51.7047 13.7515C51.2343 12.3991 50.5319 11.3092 49.5279 10.6168L48.3924 12.2632C48.9351 12.6375 49.4327 13.3075 49.8157 14.4085L51.7047 13.7515ZM49.4763 12.2965C50.4779 11.693 51.1224 11.5 51.4802 11.5V9.5C50.5579 9.5 49.5225 9.93367 48.444 10.5835L49.4763 12.2965ZM51.4802 11.5C52.0326 11.5 52.4067 11.5913 52.6529 11.7144L53.5474 9.92557C52.9403 9.62203 52.2344 9.5 51.4802 9.5V11.5ZM52.6529 11.7144C52.9826 11.8792 53.2183 12.0639 53.3856 12.2562L54.8948 10.9438C54.5286 10.5228 54.0711 10.1874 53.5474 9.92557L52.6529 11.7144ZM53.4168 12.2905C53.5802 12.4616 53.7675 12.751 53.9517 13.2114L55.8086 12.4686C55.5661 11.8624 55.2601 11.325 54.8635 10.9095L53.4168 12.2905ZM53.9517 13.2114C54.1518 13.7117 54.2954 14.1522 54.3883 14.5356L56.332 14.0644C56.2116 13.5678 56.0352 13.035 55.8086 12.4686L53.9517 13.2114ZM54.3883 14.5356C54.4796 14.9121 54.5605 15.4273 54.6247 16.0957L56.6156 15.9043C56.5465 15.186 56.4541 14.5679 56.332 14.0644L54.3883 14.5356ZM54.6267 16.1146C54.7053 16.7952 54.7486 17.3243 54.7606 17.7112L56.7597 17.6488C56.7451 17.1824 56.695 16.5914 56.6136 15.8854L54.6267 16.1146ZM54.7621 17.7424C54.7875 18.1483 54.8071 18.6987 54.8203 19.3989L56.82 19.3611C56.8065 18.648 56.7862 18.065 56.7582 17.6176L54.7621 17.7424ZM54.8209 19.4184C54.8475 20.1114 54.8677 20.5968 54.8814 20.8699L56.8789 20.7701C56.8659 20.5099 56.8461 20.0352 56.8194 19.3416L54.8209 19.4184ZM55.8802 21.82H56.1602V19.82H55.8802V21.82ZM57.0824 21.2067C57.6234 19.9165 58.1106 18.452 58.5464 16.8177L56.6139 16.3023C56.1964 17.868 55.7369 19.2435 55.238 20.4333L57.0824 21.2067ZM58.5444 16.8252C58.9932 15.1932 59.2402 13.8191 59.2402 12.74H57.2402C57.2402 13.5542 57.0472 14.7268 56.616 16.2948L58.5444 16.8252ZM59.2402 12.74C59.2402 12.125 59.1071 11.5377 58.8346 10.9928L57.0457 11.8872C57.1733 12.1423 57.2402 12.4216 57.2402 12.74H59.2402ZM58.4712 12.2874C59.3896 11.7118 60.0889 11.5 60.6002 11.5V9.5C59.5647 9.5 58.4908 9.91483 57.4091 10.5926L58.4712 12.2874ZM60.6002 11.5C61.1654 11.5 61.4091 11.6464 61.5245 11.7681C61.6494 11.8997 61.8002 12.188 61.8002 12.82H63.8002C63.8002 11.9054 63.5843 11.0336 62.9758 10.3919C62.3578 9.74027 61.5016 9.5 60.6002 9.5V11.5ZM61.8002 12.82C61.8002 13.431 61.5503 14.6141 60.9488 16.472L62.8515 17.088C63.45 15.2393 63.8002 13.7824 63.8002 12.82H61.8002ZM60.9488 16.472C60.3614 18.2862 59.6701 20.0405 58.8749 21.7352L60.6854 22.5848C61.5169 20.8129 62.2389 18.9805 62.8515 17.088L60.9488 16.472ZM58.8742 21.7365C57.8454 23.9374 56.8281 25.4244 55.8541 26.2941L57.1862 27.7859C58.4522 26.6556 59.6082 24.8893 60.6861 22.5835L58.8742 21.7365ZM55.8497 26.298C54.9577 27.1041 53.7841 27.54 52.2402 27.54V29.54C54.1895 29.54 55.8693 28.9759 57.1906 27.782L55.8497 26.298ZM52.2402 27.54C51.6025 27.54 51.0553 27.4145 50.5797 27.1818L49.7006 28.9782C50.4784 29.3588 51.3312 29.54 52.2402 29.54V27.54ZM50.5682 27.1763C50.3301 27.0635 50.2047 26.9392 50.1326 26.8242C50.06 26.7082 50.0002 26.5354 50.0002 26.26H48.0002C48.0002 26.838 48.1303 27.3951 48.4377 27.8858C48.7456 28.3775 49.1902 28.7365 49.7121 28.9837L50.5682 27.1763ZM50.0002 26.26C50.0002 25.673 50.223 24.9935 50.7915 24.2046L49.1688 23.0354C48.4306 24.0599 48.0002 25.1403 48.0002 26.26H50.0002ZM49.1561 24.1865C49.5533 24.7642 50.0835 25.2083 50.7227 25.5192L51.5976 23.7208C51.2501 23.5517 50.9937 23.3291 50.8042 23.0535L49.1561 24.1865ZM50.7427 25.5287C51.3773 25.8202 52.0612 25.96 52.7802 25.96V23.96C52.3258 23.96 51.9297 23.8731 51.5777 23.7113L50.7427 25.5287ZM52.7802 25.96C53.5686 25.96 54.3096 25.7468 54.9843 25.3317L53.9361 23.6283C53.5707 23.8532 53.1917 23.96 52.7802 23.96V25.96ZM54.9902 25.328C55.7191 24.8724 56.238 24.2188 56.5382 23.4067L54.6622 22.7133C54.509 23.1279 54.2679 23.4209 53.9302 23.632L54.9902 25.328ZM55.3619 22.0888C54.7154 22.2474 54.1501 22.32 53.6602 22.32V24.32C54.3436 24.32 55.0716 24.2193 55.8384 24.0312L55.3619 22.0888ZM53.6602 22.32C53.1899 22.32 52.9785 22.2031 52.877 22.1085C52.7734 22.0119 52.6371 21.8013 52.5967 21.317L50.6036 21.483C50.6699 22.2787 50.9303 23.0281 51.5133 23.5715C52.0985 24.1169 52.8638 24.32 53.6602 24.32V22.32ZM63.4777 27.52L63.9633 26.6458L63.9571 26.6424L63.9508 26.639L63.4777 27.52ZM63.0777 24.42L63.6851 25.2144L63.6924 25.2088L63.6995 25.2031L63.0777 24.42ZM66.1377 24.32L65.6266 25.1795L65.6266 25.1795L66.1377 24.32ZM67.3577 25.58L66.4946 26.0852L66.8831 26.7488L67.6242 26.5438L67.3577 25.58ZM69.0377 24.5L68.2961 23.8291L68.2953 23.83L69.0377 24.5ZM69.0577 21.1L69.755 20.3833L69.2143 19.8572L68.56 20.2326L69.0577 21.1ZM65.6977 18.92L66.3011 19.7174L66.3043 19.715L65.6977 18.92ZM68.7977 18.38L68.6655 19.3712L69.0808 19.4266L69.4116 19.1694L68.7977 18.38ZM69.6377 17.32L68.7378 16.8837L68.7322 16.8956L69.6377 17.32ZM69.5377 14.82L68.7851 15.4785L68.792 15.4865L68.7992 15.4943L69.5377 14.82ZM66.9977 14.9L67.6224 15.6809L67.6224 15.6809L66.9977 14.9ZM65.9577 16.68L65.9032 17.6785L66.7053 17.7223L66.9209 16.9485L65.9577 16.68ZM64.3177 16.1L63.6105 16.8071L63.6172 16.8138L63.624 16.8203L64.3177 16.1ZM65.2177 12.12L64.609 11.3265L64.6037 11.3306L65.2177 12.12ZM71.8377 11.34L71.5038 12.2826L71.5126 12.2857L71.5214 12.2887L71.8377 11.34ZM73.2977 12.2L74.0396 11.5294L74.0314 11.5206L73.2977 12.2ZM71.6777 19.34L70.9877 18.6161L69.9403 19.6145L71.2445 20.2413L71.6777 19.34ZM72.1177 26.6L71.5386 25.7847L71.535 25.7873L72.1177 26.6ZM66.5377 27.12C65.2956 27.12 64.471 26.9279 63.9633 26.6458L62.992 28.3942C63.9243 28.9121 65.1397 29.12 66.5377 29.12V27.12ZM63.9508 26.639C63.4681 26.3798 63.3977 26.149 63.3977 25.94H61.3977C61.3977 27.0643 62.0472 27.8869 63.0045 28.401L63.9508 26.639ZM63.3977 25.94C63.3977 25.5256 63.5227 25.3386 63.6851 25.2144L62.4702 23.6256C61.726 24.1948 61.3977 25.021 61.3977 25.94H63.3977ZM63.6995 25.2031C63.9872 24.9747 64.2707 24.88 64.5777 24.88V22.88C63.7913 22.88 63.0748 23.1453 62.4558 23.6369L63.6995 25.2031ZM64.5777 24.88C64.9353 24.88 65.2798 24.9734 65.6266 25.1795L66.6487 23.4605C66.0088 23.08 65.3134 22.88 64.5777 22.88V24.88ZM65.6266 25.1795C65.9599 25.3777 66.251 25.669 66.4946 26.0852L68.2207 25.0748C67.8243 24.3976 67.3021 23.849 66.6487 23.4605L65.6266 25.1795ZM67.6242 26.5438C68.4577 26.3133 69.1766 25.8386 69.78 25.17L68.2953 23.83C67.912 24.2547 67.511 24.5001 67.0911 24.6162L67.6242 26.5438ZM69.7792 25.1709C70.412 24.4715 70.7977 23.6553 70.7977 22.74H68.7977C68.7977 23.0513 68.6767 23.4085 68.2961 23.8291L69.7792 25.1709ZM70.7977 22.74C70.7977 21.8225 70.4159 21.0263 69.755 20.3833L68.3603 21.8167C68.6861 22.1337 68.7977 22.4308 68.7977 22.74H70.7977ZM68.56 20.2326C67.8827 20.6212 67.2195 20.8 66.5577 20.8V22.8C67.6025 22.8 68.6059 22.5121 69.5553 21.9674L68.56 20.2326ZM66.5577 20.8C66.16 20.8 66.0481 20.7064 66.0367 20.6959C66.0306 20.6902 66.0154 20.6755 65.9984 20.6285C65.9795 20.5759 65.9577 20.4793 65.9577 20.32H63.9577C63.9577 20.9884 64.1419 21.6677 64.6786 22.1641C65.2006 22.6469 65.8887 22.8 66.5577 22.8V20.8ZM65.9577 20.32C65.9577 20.1092 66.0274 19.9245 66.3011 19.7174L65.0942 18.1226C64.3812 18.6622 63.9577 19.4108 63.9577 20.32H65.9577ZM66.3043 19.715C66.5624 19.518 67.0602 19.34 67.9577 19.34V17.34C66.8551 17.34 65.8462 17.5487 65.091 18.125L66.3043 19.715ZM67.9577 19.34C68.302 19.34 68.5306 19.3532 68.6655 19.3712L68.9298 17.3888C68.6647 17.3534 68.3334 17.34 67.9577 17.34V19.34ZM69.4116 19.1694C69.9004 18.7892 70.2784 18.3091 70.5431 17.7444L68.7322 16.8956C68.5969 17.1842 68.4149 17.4108 68.1837 17.5906L69.4116 19.1694ZM70.5375 17.7563C70.8115 17.1912 70.9577 16.5961 70.9577 15.98H68.9577C68.9577 16.2705 68.8905 16.5688 68.7378 16.8837L70.5375 17.7563ZM70.9577 15.98C70.9577 15.2971 70.7455 14.6598 70.2761 14.1457L68.7992 15.4943C68.8898 15.5935 68.9577 15.7296 68.9577 15.98H70.9577ZM70.2902 14.1615C69.7947 13.5951 69.1246 13.34 68.3977 13.34V15.34C68.6307 15.34 68.7206 15.4049 68.7851 15.4785L70.2902 14.1615ZM68.3977 13.34C67.6467 13.34 66.9664 13.6444 66.373 14.1191L67.6224 15.6809C67.9622 15.409 68.2152 15.34 68.3977 15.34V13.34ZM66.373 14.1191C65.6873 14.6676 65.2548 15.4769 64.9944 16.4115L66.9209 16.9485C67.1138 16.2565 67.3747 15.879 67.6224 15.6809L66.373 14.1191ZM66.0121 15.6815C65.4086 15.6486 65.1331 15.497 65.0113 15.3797L63.624 16.8203C64.2222 17.3964 65.04 17.6314 65.9032 17.6785L66.0121 15.6815ZM65.0248 15.3929C64.8671 15.2352 64.7777 15.0431 64.7777 14.74H62.7777C62.7777 15.5302 63.0482 16.2448 63.6105 16.8071L65.0248 15.3929ZM64.7777 14.74C64.7777 14.1159 65.0566 13.5121 65.8316 12.9094L64.6037 11.3306C63.4587 12.2212 62.7777 13.3641 62.7777 14.74H64.7777ZM65.8263 12.9134C66.5519 12.3568 67.7365 12 69.5377 12V10C67.5255 10 65.8301 10.3898 64.609 11.3266L65.8263 12.9134ZM69.5377 12C70.3511 12 70.9989 12.1038 71.5038 12.2826L72.1715 10.3974C71.3965 10.1229 70.5109 10 69.5377 10V12ZM71.5214 12.2887C72.0588 12.4678 72.3797 12.6805 72.5639 12.8794L74.0314 11.5206C73.5489 10.9995 72.8965 10.6389 72.1539 10.3913L71.5214 12.2887ZM72.5558 12.8705C73.0305 13.3957 73.2377 13.9414 73.2377 14.54H75.2377C75.2377 13.4052 74.8182 12.3909 74.0395 11.5295L72.5558 12.8705ZM73.2377 14.54C73.2377 15.7286 72.5947 17.0845 70.9877 18.6161L72.3676 20.0639C74.174 18.3422 75.2377 16.4981 75.2377 14.54H73.2377ZM71.2445 20.2413C71.9962 20.6026 72.4921 21.0131 72.7998 21.4425C73.0999 21.8612 73.2577 22.3478 73.2577 22.94H75.2577C75.2577 21.9589 74.9854 21.0588 74.4255 20.2775C73.8732 19.5069 73.0791 18.904 72.1108 18.4387L71.2445 20.2413ZM73.2577 22.94C73.2577 23.9681 72.7686 24.911 71.5386 25.7847L72.6967 27.4153C74.32 26.2623 75.2577 24.7653 75.2577 22.94H73.2577ZM71.535 25.7873C70.3392 26.6446 68.7028 27.12 66.5377 27.12V29.12C68.9858 29.12 71.0694 28.582 72.7003 27.4127L71.535 25.7873ZM76.8641 16.02L77.7872 16.4046L77.789 16.4001L76.8641 16.02ZM78.5641 13.32L77.816 12.6564L77.816 12.6564L78.5641 13.32ZM81.4241 11.3L81.8292 12.2143L81.834 12.2121L81.4241 11.3ZM88.0441 11.2L87.493 12.0345L87.5002 12.0392L88.0441 11.2ZM88.3041 15.08L88.9517 15.8419L88.9533 15.8406L88.3041 15.08ZM84.5841 15.32L84.0948 16.1921L84.1073 16.1992L84.1201 16.2058L84.5841 15.32ZM83.2641 14.02L84.1234 13.5085L83.6551 12.7218L82.8302 13.119L83.2641 14.02ZM81.4041 16.06L80.5144 15.6034L80.5144 15.6034L81.4041 16.06ZM81.1241 21.54L80.2499 22.0257L80.2546 22.034L81.1241 21.54ZM84.1641 21.48L83.3701 20.8719L83.362 20.8827L84.1641 21.48ZM84.8841 19.22V18.22H83.8841V19.22H84.8841ZM87.7641 19.54L87.4153 20.4772L87.4223 20.4798L87.7641 19.54ZM86.8441 24.04L86.2141 23.2634L86.2141 23.2634L86.8441 24.04ZM77.9241 23.82L77.2127 24.5229L77.217 24.5271L77.9241 23.82ZM77.2641 18.86C77.2641 18.073 77.4321 17.2567 77.7871 16.4046L75.941 15.6354C75.496 16.7033 75.2641 17.7803 75.2641 18.86H77.2641ZM77.789 16.4001C78.1443 15.5356 78.6495 14.7306 79.3121 13.9836L77.816 12.6564C77.012 13.5627 76.3839 14.5577 75.9391 15.6399L77.789 16.4001ZM79.3121 13.9836C79.9363 13.28 80.7658 12.6855 81.8292 12.2142L81.0189 10.3858C79.7356 10.9545 78.6585 11.7066 77.816 12.6564L79.3121 13.9836ZM81.834 12.2121C82.8968 11.7345 83.9775 11.5 85.0841 11.5V9.5C83.684 9.5 82.3247 9.79888 81.0141 10.3879L81.834 12.2121ZM85.0841 11.5C86.2459 11.5 87.0122 11.7169 87.493 12.0345L88.5951 10.3655C87.6626 9.74973 86.4555 9.5 85.0841 9.5V11.5ZM87.5002 12.0392C87.9487 12.3299 88.1241 12.6675 88.1241 13.14H90.1241C90.1241 11.9592 89.5794 11.0034 88.588 10.3608L87.5002 12.0392ZM88.1241 13.14C88.1241 13.7229 87.9442 14.0724 87.6548 14.3194L88.9533 15.8406C89.7572 15.1543 90.1241 14.2104 90.1241 13.14H88.1241ZM87.6564 14.3181C87.302 14.6193 86.9176 14.76 86.4641 14.76V16.76C87.3972 16.76 88.2395 16.4473 88.9517 15.8419L87.6564 14.3181ZM86.4641 14.76C85.9164 14.76 85.4514 14.6454 85.0481 14.4342L84.1201 16.2058C84.8367 16.5812 85.6251 16.76 86.4641 16.76V14.76ZM85.0733 14.4479C84.6857 14.2304 84.3708 13.9242 84.1234 13.5085L82.4048 14.5315C82.824 15.2358 83.3891 15.7963 84.0948 16.1921L85.0733 14.4479ZM82.8302 13.119C81.846 13.5929 81.0928 14.4763 80.5144 15.6034L82.2938 16.5166C82.7553 15.6171 83.2422 15.1404 83.6979 14.921L82.8302 13.119ZM80.5144 15.6034C79.9299 16.7424 79.6241 17.9178 79.6241 19.12H81.6241C81.6241 18.2689 81.8382 17.4043 82.2938 16.5166L80.5144 15.6034ZM79.6241 19.12C79.6241 20.2281 79.8039 21.2229 80.2499 22.0256L81.9982 21.0544C81.7775 20.6571 81.6241 20.0386 81.6241 19.12H79.6241ZM80.2546 22.034C80.744 22.8954 81.5292 23.42 82.5441 23.42V21.42C82.3322 21.42 82.1708 21.358 81.9935 21.046L80.2546 22.034ZM82.5441 23.42C83.558 23.42 84.3678 22.8807 84.9661 22.0773L83.362 20.8827C83.027 21.3326 82.7568 21.42 82.5441 21.42V23.42ZM84.9579 22.0881C85.5869 21.2669 85.8841 20.2932 85.8841 19.22H83.8841C83.8841 19.9068 83.7012 20.4398 83.3702 20.8719L84.9579 22.0881ZM84.8841 20.22C86.2201 20.22 87.0231 20.3313 87.4153 20.4772L88.1128 18.6028C87.3583 18.3221 86.2414 18.22 84.8841 18.22V20.22ZM87.4223 20.4798C87.54 20.5226 87.5693 20.5644 87.5809 20.5827C87.5989 20.6109 87.6441 20.7017 87.6441 20.92H89.6441C89.6441 20.4316 89.5425 19.9391 89.2672 19.5073C88.9855 19.0656 88.5748 18.7707 88.1058 18.6002L87.4223 20.4798ZM87.6441 20.92C87.6441 21.6188 87.2775 22.4008 86.2141 23.2634L87.474 24.8166C88.8106 23.7325 89.6441 22.4345 89.6441 20.92H87.6441ZM86.2141 23.2634C85.2221 24.068 83.9497 24.5 82.3241 24.5V26.5C84.3251 26.5 86.066 25.9587 87.474 24.8166L86.2141 23.2634ZM82.3241 24.5C80.7342 24.5 79.5361 24.0178 78.6312 23.1129L77.217 24.5271C78.5521 25.8622 80.2872 26.5 82.3241 26.5V24.5ZM78.6354 23.1171C77.7758 22.2471 77.2641 20.8875 77.2641 18.86H75.2641C75.2641 21.2059 75.859 23.1529 77.2127 24.5229L78.6354 23.1171ZM99.6164 19.66L100.606 19.8043L100.773 18.66H99.6164V19.66ZM95.0964 19.66V18.66H94.2548L94.1111 19.4892L95.0964 19.66ZM95.4364 24.62L96.0364 25.42L96.7712 24.8689L96.2844 24.09L95.4364 24.62ZM91.0764 24.78L90.2713 25.3732L90.279 25.3834L91.0764 24.78ZM91.7764 14.08L92.7604 14.2581L92.8193 13.9326L92.6725 13.6361L91.7764 14.08ZM90.7164 11.94L90.1738 11.1L89.4242 11.5842L89.8203 12.3839L90.7164 11.94ZM95.5364 17.28L94.5545 17.0908L94.3254 18.28H95.5364V17.28ZM100.016 17.28V18.28H100.869L101.004 17.438L100.016 17.28ZM100.596 14.08L101.58 14.2621L101.64 13.9346L101.493 13.6361L100.596 14.08ZM99.5364 11.94L98.9938 11.1L98.2442 11.5842L98.6403 12.3839L99.5364 11.94ZM104.416 16.98L103.435 16.7886L103.434 16.7924L104.416 16.98ZM104.256 24.62L104.856 25.42L105.591 24.8689L105.104 24.09L104.256 24.62ZM99.8964 24.78L99.0913 25.3732L99.099 25.3834L99.8964 24.78ZM100.336 22.42C100.336 21.9391 100.42 21.082 100.606 19.8043L98.6269 19.5157C98.4399 20.798 98.3364 21.7809 98.3364 22.42H100.336ZM99.6164 18.66H95.0964V20.66H99.6164V18.66ZM94.1111 19.4892C93.9392 20.4811 93.8364 21.2485 93.8364 21.72H95.8364C95.8364 21.4448 95.907 20.8389 96.0817 19.8308L94.1111 19.4892ZM93.8364 21.72C93.8364 23.0827 94.041 24.2742 94.5884 25.15L96.2844 24.09C96.0318 23.6858 95.8364 22.9439 95.8364 21.72H93.8364ZM94.8364 23.82C94.1818 24.311 93.5544 24.52 92.9364 24.52V26.52C94.0517 26.52 95.091 26.129 96.0364 25.42L94.8364 23.82ZM92.9364 24.52C92.2495 24.52 91.99 24.33 91.8738 24.1766L90.279 25.3834C90.9095 26.2166 91.89 26.52 92.9364 26.52V24.52ZM91.8815 24.1868C91.6884 23.9248 91.5164 23.4261 91.5164 22.54H89.5164C89.5164 23.6272 89.7177 24.6218 90.2714 25.3732L91.8815 24.1868ZM91.5164 22.54C91.5164 22.1254 91.6091 21.2419 91.8205 19.8223C92.0283 18.4271 92.3412 16.5736 92.7604 14.2581L90.7924 13.9019C90.3716 16.2264 90.0545 18.1029 89.8423 19.5277C89.6337 20.9281 89.5164 21.9546 89.5164 22.54H91.5164ZM92.6725 13.6361L91.6125 11.4961L89.8203 12.3839L90.8803 14.5239L92.6725 13.6361ZM91.259 12.78C92.6725 11.8669 93.8568 11.48 94.8364 11.48V9.48C93.336 9.48 91.7737 10.0665 90.1738 11.1L91.259 12.78ZM94.8364 11.48C95.1371 11.48 95.2001 11.5621 95.2178 11.5837C95.2668 11.6435 95.3764 11.8444 95.3764 12.36H97.3764C97.3764 11.6223 97.2294 10.8832 96.765 10.3163C96.2693 9.71123 95.5624 9.48 94.8364 9.48V11.48ZM95.3764 12.36C95.3764 12.3557 95.3761 12.3825 95.3684 12.4584C95.3613 12.5282 95.3499 12.6211 95.3334 12.7398C95.3005 12.9769 95.2499 13.2964 95.1807 13.7017C95.0424 14.5114 94.834 15.64 94.5545 17.0908L96.5183 17.4692C96.7988 16.0133 97.0104 14.8686 97.1521 14.0383C97.2857 13.2558 97.3764 12.6521 97.3764 12.36H95.3764ZM95.5364 18.28H100.016V16.28H95.5364V18.28ZM101.004 17.438C101.055 17.12 101.245 16.0689 101.58 14.2621L99.6131 13.8979C99.2811 15.6911 99.0848 16.7734 99.029 17.122L101.004 17.438ZM101.493 13.6361L100.433 11.4961L98.6403 12.3839L99.7003 14.5239L101.493 13.6361ZM100.079 12.78C101.492 11.8669 102.677 11.48 103.656 11.48V9.48C102.156 9.48 100.594 10.0665 98.9938 11.1L100.079 12.78ZM103.656 11.48C103.957 11.48 104.02 11.5621 104.038 11.5837C104.087 11.6435 104.196 11.8444 104.196 12.36H106.196C106.196 11.6223 106.049 10.8832 105.585 10.3163C105.089 9.71123 104.382 9.48 103.656 9.48V11.48ZM104.196 12.36C104.196 12.3599 104.196 12.3606 104.196 12.3621C104.196 12.3636 104.196 12.3657 104.196 12.3685C104.196 12.3742 104.196 12.382 104.195 12.3922C104.194 12.4128 104.192 12.44 104.189 12.4747C104.182 12.5446 104.172 12.6354 104.156 12.7493C104.126 12.9773 104.079 13.2792 104.015 13.6585C103.887 14.4163 103.694 15.4585 103.435 16.7886L105.398 17.1714C105.659 15.8349 105.855 14.7737 105.987 13.9915C106.113 13.2494 106.196 12.6687 106.196 12.36H104.196ZM103.434 16.7924C103.18 18.1232 102.988 19.1925 102.859 19.9967C102.735 20.7703 102.656 21.3727 102.656 21.72H104.656C104.656 21.5606 104.705 21.1197 104.834 20.3133C104.958 19.5375 105.146 18.4901 105.399 17.1676L103.434 16.7924ZM102.656 21.72C102.656 23.0827 102.861 24.2742 103.408 25.15L105.104 24.09C104.852 23.6858 104.656 22.9439 104.656 21.72H102.656ZM103.656 23.82C103.002 24.311 102.374 24.52 101.756 24.52V26.52C102.872 26.52 103.911 26.129 104.856 25.42L103.656 23.82ZM101.756 24.52C101.069 24.52 100.81 24.33 100.694 24.1766L99.099 25.3834C99.7295 26.2166 100.71 26.52 101.756 26.52V24.52ZM100.701 24.1868C100.516 23.9351 100.336 23.4069 100.336 22.42H98.3364C98.3364 23.5664 98.5301 24.6116 99.0914 25.3732L100.701 24.1868ZM113.161 24.68L114.146 24.8513L114.395 23.4203L112.969 23.6985L113.161 24.68ZM108.101 17.92L108.975 18.4052L108.976 18.4045L108.101 17.92ZM109.421 15.06L110.354 15.419L110.354 15.419L109.421 15.06ZM109.861 11.46L109.508 10.5243L108.583 10.873L108.921 11.8017L109.861 11.46ZM109.521 22.4L108.818 21.6888L107.087 23.4H109.521V22.4ZM113.681 22.4V23.4H114.434L114.642 22.6761L113.681 22.4ZM115.001 18.92L114.294 18.2129L114.175 18.3313L114.102 18.4818L115.001 18.92ZM116.701 17.92L117.069 18.8496L117.069 18.8496L116.701 17.92ZM119.241 17.58L118.473 18.2202L118.502 18.255L118.534 18.2871L119.241 17.58ZM119.001 19.64L119.965 19.904L119.967 19.8967L119.001 19.64ZM118.441 27.68L118.898 28.5693L119.894 28.0571L119.273 27.1253L118.441 27.68ZM113.721 27.62L114.494 26.9856L114.486 26.9759L113.721 27.62ZM114.081 25.64C114.081 25.3601 114.103 25.0976 114.146 24.8513L112.176 24.5087C112.112 24.8757 112.081 25.2533 112.081 25.64H114.081ZM112.969 23.6985C111.937 23.8999 110.915 24 109.901 24V26C111.047 26 112.198 25.8867 113.352 25.6615L112.969 23.6985ZM109.901 24C108.731 24 108.023 23.8134 107.637 23.5744C107.329 23.3845 107.181 23.1419 107.181 22.7H105.181C105.181 23.7914 105.652 24.6989 106.585 25.2756C107.438 25.8033 108.59 26 109.901 26V24ZM107.181 22.7C107.181 22.4586 107.28 21.9869 107.589 21.2177C107.887 20.4743 108.346 19.5392 108.975 18.4052L107.226 17.4348C106.576 18.6074 106.074 19.6224 105.733 20.4723C105.402 21.2964 105.181 22.0614 105.181 22.7H107.181ZM108.976 18.4045C109.481 17.4928 109.94 16.4969 110.354 15.419L108.487 14.701C108.102 15.7031 107.681 16.6139 107.226 17.4355L108.976 18.4045ZM110.354 15.419C110.778 14.3178 111.021 13.3026 111.021 12.4H109.021C109.021 12.9641 108.864 13.7222 108.487 14.701L110.354 15.419ZM111.021 12.4C111.021 11.9581 110.95 11.5284 110.801 11.1183L108.921 11.8017C108.985 11.9783 109.021 12.1753 109.021 12.4H111.021ZM110.214 12.3957C110.957 12.1152 111.547 12 112.001 12V10C111.228 10 110.391 10.1914 109.508 10.5243L110.214 12.3957ZM112.001 12C112.749 12 113.125 12.1851 113.321 12.3797C113.516 12.573 113.701 12.9427 113.701 13.68H115.701C115.701 12.6306 115.436 11.6603 114.73 10.9603C114.026 10.2616 113.053 10 112.001 10V12ZM113.701 13.68C113.701 15.6446 112.249 18.2972 108.818 21.6888L110.224 23.1112C113.699 19.6761 115.701 16.5154 115.701 13.68H113.701ZM109.521 23.4H113.681V21.4H109.521V23.4ZM114.642 22.6761C114.987 21.4731 115.407 20.3679 115.9 19.3582L114.102 18.4818C113.554 19.6054 113.094 20.8203 112.72 22.1239L114.642 22.6761ZM115.708 19.6271C115.929 19.4057 116.352 19.1339 117.069 18.8496L116.332 16.9904C115.502 17.3194 114.792 17.7143 114.294 18.2129L115.708 19.6271ZM117.069 18.8496C117.756 18.5773 118.343 18.46 118.841 18.46V16.46C118.032 16.46 117.192 16.6494 116.332 16.9904L117.069 18.8496ZM118.841 18.46C118.882 18.46 118.861 18.4651 118.803 18.4478C118.744 18.43 118.601 18.374 118.473 18.2202L120.009 16.9398C119.636 16.4925 119.089 16.46 118.841 16.46V18.46ZM118.534 18.2871C118.451 18.2042 118.404 18.1226 118.379 18.0694C118.354 18.0162 118.344 17.9767 118.341 17.9616C118.335 17.9356 118.341 17.9477 118.341 18.02H120.341C120.341 17.8656 120.33 17.6911 120.291 17.5184C120.255 17.3608 120.172 17.0969 119.948 16.8729L118.534 18.2871ZM118.341 18.02C118.341 18.0184 118.334 18.1185 118.277 18.3896C118.226 18.6354 118.145 18.9649 118.034 19.3833L119.967 19.8967C120.083 19.4618 120.173 19.0946 120.234 18.8004C120.291 18.5315 120.341 18.2483 120.341 18.02H118.341ZM118.036 19.376C117.333 21.9471 116.961 24.1051 116.961 25.82H118.961C118.961 24.3616 119.282 22.3996 119.965 19.904L118.036 19.376ZM116.961 25.82C116.961 26.7157 117.149 27.5457 117.609 28.2347L119.273 27.1253C119.092 26.8543 118.961 26.4443 118.961 25.82H116.961ZM117.983 26.7907C117.167 27.2107 116.409 27.4 115.701 27.4V29.4C116.779 29.4 117.848 29.1093 118.898 28.5693L117.983 26.7907ZM115.701 27.4C115.002 27.4 114.673 27.2037 114.494 26.9857L112.948 28.2543C113.622 29.0763 114.613 29.4 115.701 29.4V27.4ZM114.486 26.9759C114.243 26.6879 114.081 26.2733 114.081 25.64H112.081C112.081 26.6334 112.345 27.5387 112.956 28.2641L114.486 26.9759ZM131.501 21.86L130.617 22.3262L131.134 23.307L132.056 22.6921L131.501 21.86ZM131.981 21.54L132.536 22.3721L133.282 21.8745L132.869 21.0786L131.981 21.54ZM131.821 12.12L131.008 11.5378L131.004 11.5445L131.821 12.12ZM136.941 10.88L137.926 11.0558L138.057 10.3199L137.389 9.98557L136.941 10.88ZM136.221 14.78L137.204 14.9641L137.204 14.9639L136.221 14.78ZM135.741 24.48L136.292 25.315L137.139 24.7563L136.568 23.9172L135.741 24.48ZM134.121 25.28L134.406 26.2385L134.121 25.28ZM130.081 25L129.612 25.8829L129.619 25.8869L130.081 25ZM128.521 23.68L127.708 24.2612L127.716 24.2723L127.724 24.2831L128.521 23.68ZM127.501 21.62L128.447 21.2945L128.446 21.2932L127.501 21.62ZM126.601 16.18L127.6 16.1316L127.554 15.18H126.601V16.18ZM126.281 16.18V15.18H125.478L125.305 15.9641L126.281 16.18ZM125.961 24.62L126.561 25.42L127.296 24.8689L126.809 24.09L125.961 24.62ZM121.601 24.78L120.796 25.3732L120.804 25.3834L121.601 24.78ZM122.301 14.08L123.285 14.2581L123.344 13.9326L123.198 13.6361L122.301 14.08ZM121.241 11.94L120.701 11.0988L119.948 11.5824L120.345 12.3839L121.241 11.94ZM127.901 11.12L127.334 11.9435L127.34 11.9478L127.347 11.9521L127.901 11.12ZM129.681 15.4L128.689 15.5203L128.69 15.5288L128.691 15.5372L129.681 15.4ZM130.281 18.54L129.306 18.7625L129.309 18.7726L130.281 18.54ZM132.056 22.6921L132.536 22.3721L131.427 20.7079L130.947 21.0279L132.056 22.6921ZM132.869 21.0786C132.08 19.5627 131.681 17.8956 131.681 16.06H129.681C129.681 18.1978 130.149 20.184 131.094 22.0014L132.869 21.0786ZM131.681 16.06C131.681 14.6831 132.017 13.5796 132.639 12.6955L131.004 11.5445C130.106 12.8204 129.681 14.3436 129.681 16.06H131.681ZM132.634 12.7022C133.208 11.9007 133.983 11.5 135.081 11.5V9.5C133.379 9.5 131.981 10.1793 131.008 11.5378L132.634 12.7022ZM135.081 11.5C135.704 11.5 136.161 11.6079 136.494 11.7744L137.389 9.98557C136.708 9.64544 135.926 9.5 135.081 9.5V11.5ZM135.957 10.7042C135.824 11.4464 135.585 12.7427 135.238 14.5961L137.204 14.9639C137.551 13.1106 137.792 11.807 137.926 11.0558L135.957 10.7042ZM135.238 14.5959C134.865 16.5921 134.583 18.1693 134.394 19.3239C134.213 20.4378 134.101 21.2473 134.101 21.64H136.101C136.101 21.446 136.177 20.8189 136.368 19.6461C136.553 18.5141 136.832 16.9545 137.204 14.9641L135.238 14.5959ZM134.101 21.64C134.101 22.9863 134.322 24.1724 134.915 25.0428L136.568 23.9172C136.307 23.5343 136.101 22.8271 136.101 21.64H134.101ZM135.191 23.645C134.659 23.996 134.209 24.2108 133.836 24.3215L134.406 26.2385C135.021 26.0558 135.651 25.7374 136.292 25.315L135.191 23.645ZM133.836 24.3215C133.471 24.4302 132.937 24.5 132.201 24.5V26.5C133.039 26.5 133.785 26.4232 134.406 26.2385L133.836 24.3215ZM132.201 24.5C131.577 24.5 131.031 24.3668 130.543 24.1131L129.619 25.8869C130.412 26.2998 131.279 26.5 132.201 26.5V24.5ZM130.551 24.1171C130.048 23.8496 129.642 23.5034 129.319 23.0769L127.724 24.2831C128.228 24.95 128.861 25.4838 129.612 25.8829L130.551 24.1171ZM129.335 23.0988C129.003 22.6339 128.703 22.0384 128.447 21.2945L126.556 21.9455C126.86 22.8283 127.24 23.6061 127.708 24.2612L129.335 23.0988ZM128.446 21.2932C127.995 19.9871 127.704 18.276 127.6 16.1316L125.603 16.2284C125.712 18.484 126.021 20.3995 126.556 21.9468L128.446 21.2932ZM126.601 15.18H126.281V17.18H126.601V15.18ZM125.305 15.9641C124.693 18.7318 124.361 20.7705 124.361 22H126.361C126.361 21.0161 126.643 19.1749 127.258 16.3959L125.305 15.9641ZM124.361 22C124.361 23.2119 124.578 24.2934 125.113 25.15L126.809 24.09C126.545 23.6666 126.361 23.0014 126.361 22H124.361ZM125.361 23.82C124.707 24.311 124.079 24.52 123.461 24.52V26.52C124.577 26.52 125.616 26.129 126.561 25.42L125.361 23.82ZM123.461 24.52C122.774 24.52 122.515 24.33 122.399 24.1766L120.804 25.3834C121.435 26.2166 122.415 26.52 123.461 26.52V24.52ZM122.406 24.1868C122.213 23.9248 122.041 23.4261 122.041 22.54H120.041C120.041 23.6272 120.243 24.6218 120.796 25.3732L122.406 24.1868ZM122.041 22.54C122.041 22.1254 122.134 21.2419 122.345 19.8223C122.553 18.4271 122.866 16.5736 123.285 14.2581L121.317 13.9019C120.897 16.2264 120.58 18.1029 120.367 19.5277C120.159 20.9281 120.041 21.9546 120.041 22.54H122.041ZM123.198 13.6361L122.138 11.4961L120.345 12.3839L121.405 14.5239L123.198 13.6361ZM121.782 12.7812C123.191 11.8753 124.335 11.5 125.241 11.5V9.5C123.802 9.5 122.278 10.0847 120.701 11.0988L121.782 12.7812ZM125.241 11.5C126.325 11.5 126.975 11.6959 127.334 11.9435L128.469 10.2965C127.628 9.71745 126.504 9.5 125.241 9.5V11.5ZM127.347 11.9521C127.728 12.206 128.022 12.5934 128.205 13.1918L130.118 12.6082C129.82 11.6332 129.275 10.834 128.456 10.2879L127.347 11.9521ZM128.205 13.1918C128.427 13.9183 128.589 14.694 128.689 15.5203L130.674 15.2797C130.561 14.346 130.376 13.455 130.118 12.6082L128.205 13.1918ZM128.691 15.5372C128.816 16.4419 129.023 17.5187 129.306 18.7625L131.256 18.3175C130.98 17.1079 130.787 16.0914 130.672 15.2628L128.691 15.5372ZM129.309 18.7726C129.619 20.0701 130.053 21.2568 130.617 22.3262L132.386 21.3938C131.91 20.4899 131.53 19.4632 131.254 18.3074L129.309 18.7726Z" fill="#264DB1" mask="url(#path-1-outside-1_1_11)"/>
</g>
<defs>
<clipPath id="clip0_1_11">
<rect width="140" height="36" fill="white"/>
</clipPath>
</defs>
</svg>
